<svg width="1440" height="1024" viewBox="0 0 1440 1024" fill="none" xmlns="http://www.w3.org/2000/svg">
<g clip-path="url(#clip0_1_3)">
<rect width="1440" height="1024" fill="white"/>
<g clip-path="url(#clip1_1_3)">
<rect y="40" width="1440" height="984" fill="#F1F1F1"/>
<g filter="url(#filter0_d_1_3)">
<circle cx="719.5" cy="944.5" r="670.5" fill="url(#paint0_linear_1_3)"/>
</g>
<g filter="url(#filter1_d_1_3)">
<circle cx="1578.5" cy="539.5" r="578.5" fill="url(#paint1_linear_1_3)"/>
</g>
<g filter="url(#filter2_d_1_3)">
<circle cx="441" cy="-81" r="820" fill="url(#paint2_linear_1_3)"/>
</g>
<g filter="url(#filter3_d_1_3)">
<circle cx="-264" cy="781" r="820" fill="url(#paint3_linear_1_3)"/>
</g>
</g>
<g clip-path="url(#clip2_1_3)">
<rect width="1440" height="40" fill="#797979" fill-opacity="0.2"/>
<path d="M1369.75 24.1193C1369.11 24.1193 1368.56 23.9446 1368.11 23.5952C1367.66 23.2429 1367.31 22.733 1367.07 22.0653C1366.84 21.3949 1366.72 20.5852 1366.72 19.6364C1366.72 18.6932 1366.84 17.8878 1367.07 17.2202C1367.32 16.5497 1367.66 16.0384 1368.11 15.6861C1368.57 15.331 1369.11 15.1534 1369.75 15.1534C1370.39 15.1534 1370.93 15.331 1371.38 15.6861C1371.84 16.0384 1372.18 16.5497 1372.42 17.2202C1372.66 17.8878 1372.78 18.6932 1372.78 19.6364C1372.78 20.5852 1372.66 21.3949 1372.43 22.0653C1372.19 22.733 1371.84 23.2429 1371.39 23.5952C1370.94 23.9446 1370.39 24.1193 1369.75 24.1193ZM1369.75 23.1818C1370.39 23.1818 1370.88 22.875 1371.23 22.2614C1371.59 21.6477 1371.76 20.7727 1371.76 19.6364C1371.76 18.8807 1371.68 18.2372 1371.52 17.706C1371.36 17.1747 1371.13 16.7699 1370.83 16.4915C1370.53 16.2131 1370.17 16.0739 1369.75 16.0739C1369.12 16.0739 1368.63 16.3849 1368.27 17.0071C1367.92 17.6264 1367.74 18.5028 1367.74 19.6364C1367.74 20.392 1367.82 21.0341 1367.98 21.5625C1368.14 22.0909 1368.37 22.4929 1368.66 22.7685C1368.96 23.044 1369.33 23.1818 1369.75 23.1818ZM1377.25 24.1193C1376.61 24.1193 1376.06 23.9446 1375.61 23.5952C1375.16 23.2429 1374.81 22.733 1374.57 22.0653C1374.34 21.3949 1374.22 20.5852 1374.22 19.6364C1374.22 18.6932 1374.34 17.8878 1374.57 17.2202C1374.82 16.5497 1375.16 16.0384 1375.61 15.6861C1376.07 15.331 1376.61 15.1534 1377.25 15.1534C1377.89 15.1534 1378.43 15.331 1378.88 15.6861C1379.34 16.0384 1379.68 16.5497 1379.92 17.2202C1380.16 17.8878 1380.28 18.6932 1380.28 19.6364C1380.28 20.5852 1380.16 21.3949 1379.93 22.0653C1379.69 22.733 1379.34 23.2429 1378.89 23.5952C1378.44 23.9446 1377.89 24.1193 1377.25 24.1193ZM1377.25 23.1818C1377.89 23.1818 1378.38 22.875 1378.73 22.2614C1379.09 21.6477 1379.26 20.7727 1379.26 19.6364C1379.26 18.8807 1379.18 18.2372 1379.02 17.706C1378.86 17.1747 1378.63 16.7699 1378.33 16.4915C1378.03 16.2131 1377.67 16.0739 1377.25 16.0739C1376.62 16.0739 1376.13 16.3849 1375.77 17.0071C1375.42 17.6264 1375.24 18.5028 1375.24 19.6364C1375.24 20.392 1375.32 21.0341 1375.48 21.5625C1375.64 22.0909 1375.87 22.4929 1376.16 22.7685C1376.46 23.044 1376.83 23.1818 1377.25 23.1818ZM1382.65 22.8835C1382.44 22.8835 1382.26 22.8082 1382.11 22.6577C1381.96 22.5071 1381.89 22.3267 1381.89 22.1165C1381.89 21.9062 1381.96 21.7259 1382.11 21.5753C1382.26 21.4247 1382.44 21.3494 1382.65 21.3494C1382.86 21.3494 1383.04 21.4247 1383.19 21.5753C1383.35 21.7259 1383.42 21.9062 1383.42 22.1165C1383.42 22.2557 1383.38 22.3835 1383.31 22.5C1383.25 22.6165 1383.15 22.7102 1383.04 22.7812C1382.92 22.8494 1382.8 22.8835 1382.65 22.8835ZM1382.65 18.4688C1382.44 18.4688 1382.26 18.3935 1382.11 18.2429C1381.96 18.0923 1381.89 17.9119 1381.89 17.7017C1381.89 17.4915 1381.96 17.3111 1382.11 17.1605C1382.26 17.0099 1382.44 16.9347 1382.65 16.9347C1382.86 16.9347 1383.04 17.0099 1383.19 17.1605C1383.35 17.3111 1383.42 17.4915 1383.42 17.7017C1383.42 17.8409 1383.38 17.9688 1383.31 18.0852C1383.25 18.2017 1383.15 18.2955 1383.04 18.3665C1382.92 18.4347 1382.8 18.4688 1382.65 18.4688ZM1388.05 24.1193C1387.41 24.1193 1386.87 23.9446 1386.41 23.5952C1385.96 23.2429 1385.62 22.733 1385.38 22.0653C1385.14 21.3949 1385.02 20.5852 1385.02 19.6364C1385.02 18.6932 1385.14 17.8878 1385.38 17.2202C1385.62 16.5497 1385.97 16.0384 1386.42 15.6861C1386.87 15.331 1387.42 15.1534 1388.05 15.1534C1388.69 15.1534 1389.24 15.331 1389.69 15.6861C1390.14 16.0384 1390.49 16.5497 1390.73 17.2202C1390.97 17.8878 1391.09 18.6932 1391.09 19.6364C1391.09 20.5852 1390.97 21.3949 1390.73 22.0653C1390.49 22.733 1390.15 23.2429 1389.7 23.5952C1389.24 23.9446 1388.7 24.1193 1388.05 24.1193ZM1388.05 23.1818C1388.69 23.1818 1389.19 22.875 1389.54 22.2614C1389.89 21.6477 1390.07 20.7727 1390.07 19.6364C1390.07 18.8807 1389.99 18.2372 1389.82 17.706C1389.66 17.1747 1389.43 16.7699 1389.13 16.4915C1388.83 16.2131 1388.48 16.0739 1388.05 16.0739C1387.42 16.0739 1386.93 16.3849 1386.58 17.0071C1386.22 17.6264 1386.04 18.5028 1386.04 19.6364C1386.04 20.392 1386.12 21.0341 1386.28 21.5625C1386.44 22.0909 1386.67 22.4929 1386.97 22.7685C1387.27 23.044 1387.63 23.1818 1388.05 23.1818ZM1395.55 24.1193C1394.91 24.1193 1394.37 23.9446 1393.91 23.5952C1393.46 23.2429 1393.12 22.733 1392.88 22.0653C1392.64 21.3949 1392.52 20.5852 1392.52 19.6364C1392.52 18.6932 1392.64 17.8878 1392.88 17.2202C1393.12 16.5497 1393.47 16.0384 1393.92 15.6861C1394.37 15.331 1394.92 15.1534 1395.55 15.1534C1396.19 15.1534 1396.74 15.331 1397.19 15.6861C1397.64 16.0384 1397.99 16.5497 1398.23 17.2202C1398.47 17.8878 1398.59 18.6932 1398.59 19.6364C1398.59 20.5852 1398.47 21.3949 1398.23 22.0653C1397.99 22.733 1397.65 23.2429 1397.2 23.5952C1396.74 23.9446 1396.2 24.1193 1395.55 24.1193ZM1395.55 23.1818C1396.19 23.1818 1396.69 22.875 1397.04 22.2614C1397.39 21.6477 1397.57 20.7727 1397.57 19.6364C1397.57 18.8807 1397.49 18.2372 1397.32 17.706C1397.16 17.1747 1396.93 16.7699 1396.63 16.4915C1396.33 16.2131 1395.98 16.0739 1395.55 16.0739C1394.92 16.0739 1394.43 16.3849 1394.08 17.0071C1393.72 17.6264 1393.54 18.5028 1393.54 19.6364C1393.54 20.392 1393.62 21.0341 1393.78 21.5625C1393.94 22.0909 1394.17 22.4929 1394.47 22.7685C1394.77 23.044 1395.13 23.1818 1395.55 23.1818Z" fill="black"/>
<g opacity="0.67">
<mask id="mask0_1_3" style="mask-type:luminance" maskUnits="userSpaceOnUse" x="1402" y="2" width="36" height="36">
<g opacity="0.67">
<path d="M1437.5 2.42188H1402.42V37.5H1437.5V2.42188Z" fill="white"/>
<path d="M1431.56 19.9609C1431.56 13.5536 1426.37 8.35938 1419.96 8.35938C1413.55 8.35938 1408.36 13.5536 1408.36 19.9609C1408.36 26.3683 1413.55 31.5625 1419.96 31.5625C1426.37 31.5625 1431.56 26.3683 1431.56 19.9609Z" fill="black"/>
</g>
</mask>
<g mask="url(#mask0_1_3)">
<g filter="url(#filter5_f_1_3)">
<g style="mix-blend-mode:hard-light">
<path d="M1408.36 20.1172C1408.36 13.7098 1413.55 8.51562 1419.96 8.51562C1426.37 8.51562 1431.56 13.7098 1431.56 20.1172C1431.56 26.5245 1426.37 31.7188 1419.96 31.7188C1413.55 31.7188 1408.36 26.5245 1408.36 20.1172Z" fill="black" fill-opacity="0.04"/>
</g>
</g>
</g>
</g>
<path d="M281.415 25H280.307L283.511 16.2727H284.602L287.807 25H286.699L284.091 17.6534H284.023L281.415 25ZM281.824 21.5909H286.29V22.5284H281.824V21.5909ZM289.03 27.4545V18.4545H290.001V19.4943H290.121C290.195 19.3807 290.297 19.2358 290.428 19.0597C290.561 18.8807 290.751 18.7216 290.999 18.5824C291.249 18.4403 291.587 18.3693 292.013 18.3693C292.564 18.3693 293.05 18.5071 293.47 18.7827C293.891 19.0582 294.219 19.4489 294.455 19.9545C294.69 20.4602 294.808 21.0568 294.808 21.7443C294.808 22.4375 294.69 23.0384 294.455 23.5469C294.219 24.0526 293.892 24.4446 293.474 24.723C293.057 24.9986 292.575 25.1364 292.03 25.1364C291.609 25.1364 291.273 25.0668 291.02 24.9276C290.767 24.7855 290.572 24.625 290.436 24.446C290.3 24.2642 290.195 24.1136 290.121 23.9943H290.036V27.4545H289.03ZM290.018 21.7273C290.018 22.2216 290.091 22.6577 290.236 23.0355C290.381 23.4105 290.592 23.7045 290.871 23.9176C291.149 24.1278 291.49 24.233 291.893 24.233C292.314 24.233 292.665 24.1222 292.946 23.9006C293.23 23.6761 293.443 23.375 293.585 22.9972C293.73 22.6165 293.803 22.1932 293.803 21.7273C293.803 21.267 293.732 20.8523 293.589 20.483C293.45 20.1108 293.239 19.8168 292.955 19.6009C292.673 19.3821 292.32 19.2727 291.893 19.2727C291.484 19.2727 291.141 19.3764 290.862 19.5838C290.584 19.7884 290.374 20.0753 290.232 20.4446C290.089 20.8111 290.018 21.2386 290.018 21.7273ZM296.342 27.4545V18.4545H297.314V19.4943H297.433C297.507 19.3807 297.609 19.2358 297.74 19.0597C297.874 18.8807 298.064 18.7216 298.311 18.5824C298.561 18.4403 298.899 18.3693 299.325 18.3693C299.876 18.3693 300.362 18.5071 300.783 18.7827C301.203 19.0582 301.531 19.4489 301.767 19.9545C302.003 20.4602 302.121 21.0568 302.121 21.7443C302.121 22.4375 302.003 23.0384 301.767 23.5469C301.531 24.0526 301.205 24.4446 300.787 24.723C300.369 24.9986 299.888 25.1364 299.342 25.1364C298.922 25.1364 298.585 25.0668 298.332 24.9276C298.08 24.7855 297.885 24.625 297.749 24.446C297.612 24.2642 297.507 24.1136 297.433 23.9943H297.348V27.4545H296.342ZM297.331 21.7273C297.331 22.2216 297.403 22.6577 297.548 23.0355C297.693 23.4105 297.905 23.7045 298.183 23.9176C298.462 24.1278 298.803 24.233 299.206 24.233C299.626 24.233 299.977 24.1222 300.259 23.9006C300.543 23.6761 300.756 23.375 300.898 22.9972C301.043 22.6165 301.115 22.1932 301.115 21.7273C301.115 21.267 301.044 20.8523 300.902 20.483C300.763 20.1108 300.551 19.8168 300.267 19.6009C299.986 19.3821 299.632 19.2727 299.206 19.2727C298.797 19.2727 298.453 19.3764 298.175 19.5838C297.896 19.7884 297.686 20.0753 297.544 20.4446C297.402 20.8111 297.331 21.2386 297.331 21.7273ZM310.712 16.2727V25H309.689L304.933 18.1477H304.848V25H303.791V16.2727H304.814L309.587 23.142H309.672V16.2727H310.712ZM314.616 25.1534C314.201 25.1534 313.825 25.0753 313.487 24.919C313.149 24.7599 312.88 24.5312 312.681 24.233C312.483 23.9318 312.383 23.5682 312.383 23.142C312.383 22.767 312.457 22.4631 312.605 22.2301C312.752 21.9943 312.95 21.8097 313.197 21.6761C313.444 21.5426 313.717 21.4432 314.015 21.3778C314.316 21.3097 314.619 21.2557 314.923 21.2159C315.321 21.1648 315.643 21.1264 315.89 21.1009C316.14 21.0724 316.322 21.0256 316.436 20.9602C316.552 20.8949 316.61 20.7812 316.61 20.6193V20.5852C316.61 20.1648 316.495 19.8381 316.265 19.6051C316.038 19.3722 315.693 19.2557 315.23 19.2557C314.75 19.2557 314.373 19.3608 314.1 19.571C313.828 19.7812 313.636 20.0057 313.525 20.2443L312.571 19.9034C312.741 19.5057 312.968 19.196 313.252 18.9744C313.539 18.75 313.852 18.5937 314.19 18.5057C314.531 18.4148 314.866 18.3693 315.196 18.3693C315.406 18.3693 315.647 18.3949 315.92 18.446C316.196 18.4943 316.461 18.5952 316.717 18.7486C316.975 18.902 317.19 19.1335 317.36 19.4432C317.531 19.7528 317.616 20.1676 317.616 20.6875V25H316.61V24.1136H316.559C316.491 24.2557 316.377 24.4077 316.218 24.5696C316.059 24.7315 315.848 24.8693 315.583 24.983C315.319 25.0966 314.997 25.1534 314.616 25.1534ZM314.77 24.25C315.167 24.25 315.502 24.1719 315.775 24.0156C316.051 23.8594 316.258 23.6577 316.397 23.4105C316.539 23.1634 316.61 22.9034 316.61 22.6307V21.7102C316.568 21.7614 316.474 21.8082 316.329 21.8509C316.187 21.8906 316.022 21.9261 315.835 21.9574C315.65 21.9858 315.47 22.0114 315.294 22.0341C315.12 22.054 314.98 22.071 314.872 22.0852C314.61 22.1193 314.366 22.1747 314.139 22.2514C313.914 22.3253 313.733 22.4375 313.593 22.5881C313.457 22.7358 313.389 22.9375 313.389 23.1932C313.389 23.5426 313.518 23.8068 313.777 23.9858C314.038 24.1619 314.369 24.25 314.77 24.25ZM319.452 25V18.4545H320.423V19.4773H320.509C320.645 19.1278 320.865 18.8565 321.169 18.6634C321.473 18.4673 321.838 18.3693 322.264 18.3693C322.696 18.3693 323.055 18.4673 323.342 18.6634C323.632 18.8565 323.858 19.1278 324.02 19.4773H324.088C324.256 19.1392 324.507 18.8707 324.842 18.6719C325.178 18.4702 325.58 18.3693 326.048 18.3693C326.634 18.3693 327.112 18.5526 327.484 18.919C327.857 19.2827 328.043 19.8494 328.043 20.6193V25H327.037V20.6193C327.037 20.1364 326.905 19.7912 326.641 19.5838C326.376 19.3764 326.065 19.2727 325.707 19.2727C325.247 19.2727 324.891 19.4119 324.638 19.6903C324.385 19.9659 324.259 20.3153 324.259 20.7386V25H323.236V20.517C323.236 20.1449 323.115 19.8452 322.874 19.6179C322.632 19.3878 322.321 19.2727 321.94 19.2727C321.679 19.2727 321.435 19.3423 321.207 19.4815C320.983 19.6207 320.801 19.8139 320.662 20.0611C320.526 20.3054 320.457 20.5881 320.457 20.9091V25H319.452ZM332.626 25.1364C331.995 25.1364 331.451 24.9972 330.994 24.7188C330.539 24.4375 330.188 24.0455 329.941 23.5426C329.697 23.0369 329.575 22.4489 329.575 21.7784C329.575 21.108 329.697 20.517 329.941 20.0057C330.188 19.4915 330.532 19.0909 330.972 18.804C331.415 18.5142 331.933 18.3693 332.523 18.3693C332.864 18.3693 333.201 18.4261 333.533 18.5398C333.866 18.6534 334.168 18.8381 334.441 19.0938C334.714 19.3466 334.931 19.6818 335.093 20.0994C335.255 20.517 335.336 21.0312 335.336 21.642V22.0682H330.29V21.1989H334.313C334.313 20.8295 334.239 20.5 334.092 20.2102C333.947 19.9205 333.739 19.6918 333.469 19.5241C333.202 19.3565 332.887 19.2727 332.523 19.2727C332.123 19.2727 331.776 19.3722 331.484 19.571C331.194 19.767 330.971 20.0227 330.815 20.3381C330.658 20.6534 330.58 20.9915 330.58 21.3523V21.9318C330.58 22.4261 330.665 22.8452 330.836 23.1889C331.009 23.5298 331.249 23.7898 331.556 23.9688C331.863 24.1449 332.219 24.233 332.626 24.233C332.89 24.233 333.129 24.196 333.342 24.1222C333.558 24.0455 333.744 23.9318 333.9 23.7812C334.056 23.6278 334.177 23.4375 334.262 23.2102L335.234 23.483C335.131 23.8125 334.96 24.1023 334.718 24.3523C334.477 24.5994 334.178 24.7926 333.823 24.9318C333.468 25.0682 333.069 25.1364 332.626 25.1364Z" fill="black"/>
<g opacity="0.67">
<mask id="mask1_1_3" style="mask-type:luminance" maskUnits="userSpaceOnUse" x="242" y="2" width="36" height="36">
<g opacity="0.67">
<path d="M277.5 2.42188H242.422V37.5H277.5V2.42188Z" fill="white"/>
<path d="M271.562 19.9609C271.562 13.5536 266.368 8.35938 259.961 8.35938C253.554 8.35938 248.359 13.5536 248.359 19.9609C248.359 26.3683 253.554 31.5625 259.961 31.5625C266.368 31.5625 271.562 26.3683 271.562 19.9609Z" fill="black"/>
</g>
</mask>
<g mask="url(#mask1_1_3)">
<g filter="url(#filter6_f_1_3)">
<g style="mix-blend-mode:hard-light">
<path d="M248.359 20.1172C248.359 13.7098 253.554 8.51562 259.961 8.51562C266.368 8.51562 271.562 13.7098 271.562 20.1172C271.562 26.5245 266.368 31.7188 259.961 31.7188C253.554 31.7188 248.359 26.5245 248.359 20.1172Z" fill="black" fill-opacity="0.04"/>
</g>
</g>
</g>
</g>
<g opacity="0.67">
<mask id="mask2_1_3" style="mask-type:luminance" maskUnits="userSpaceOnUse" x="202" y="2" width="36" height="36">
<g opacity="0.67">
<path d="M237.5 2.42188H202.422V37.5H237.5V2.42188Z" fill="white"/>
<path d="M231.562 19.9609C231.562 13.5536 226.368 8.35938 219.961 8.35938C213.554 8.35938 208.359 13.5536 208.359 19.9609C208.359 26.3683 213.554 31.5625 219.961 31.5625C226.368 31.5625 231.562 26.3683 231.562 19.9609Z" fill="black"/>
</g>
</mask>
<g mask="url(#mask2_1_3)">
<g filter="url(#filter7_f_1_3)">
<g style="mix-blend-mode:hard-light">
<path d="M208.359 20.1172C208.359 13.7098 213.554 8.51562 219.961 8.51562C226.368 8.51562 231.562 13.7098 231.562 20.1172C231.562 26.5245 226.368 31.7188 219.961 31.7188C213.554 31.7188 208.359 26.5245 208.359 20.1172Z" fill="black" fill-opacity="0.04"/>
</g>
</g>
</g>
</g>
<path d="M188 10C188.552 10 189 10.4477 189 11V28C189 28.5523 188.552 29 188 29H171C170.448 29 170 28.5523 170 28V11C170 10.4477 170.448 10 171 10H188ZM175.5 15C175.224 15.0001 175 15.2239 175 15.5C175 15.7761 175.224 15.9999 175.5 16H176.5C176.776 16 177 15.7761 177 15.5C177 15.2239 176.776 15 176.5 15H175.5ZM172.3 11.5996C172.079 11.4343 171.765 11.4794 171.6 11.7002C171.434 11.921 171.48 12.2348 171.7 12.4004L173.166 13.5L171.7 14.5996L171.625 14.6689C171.471 14.8428 171.455 15.1067 171.6 15.2998C171.745 15.4929 172.003 15.5513 172.213 15.4521L172.3 15.4004L174.3 13.9004L174.833 13.5L174.3 13.0996L172.3 11.5996Z" fill="#6F6F6F"/>
<circle cx="139.5" cy="19.5" r="9" stroke="#6F6F6F"/>
<line x1="139.5" y1="11" x2="139.5" y2="28" stroke="#6F6F6F"/>
<path d="M139.5 10.5C139.5 10.5 144 11.5 144 19.5C144 27.5 139.5 28.5 139.5 28.5" stroke="#6F6F6F"/>
<path d="M139.5 10.5C139.5 10.5 135 11.5 135 19.5C135 27.5 139.5 28.5 139.5 28.5" stroke="#6F6F6F"/>
<line x1="131" y1="19.5" x2="148" y2="19.5" stroke="#6F6F6F"/>
<line x1="132" y1="24" x2="147" y2="24" stroke="#6F6F6F"/>
<line x1="132" y1="15" x2="147" y2="15" stroke="#6F6F6F"/>
<path d="M90 15V14C90 13.4477 90.4477 13 91 13H97.382C97.7607 13 98.107 13.214 98.2764 13.5528L98.7236 14.4472C98.893 14.786 99.2393 15 99.618 15H108C108.552 15 109 15.4477 109 16V26C109 26.5523 108.552 27 108 27H91C90.4477 27 90 26.5523 90 26V15Z" fill="#6F6F6F"/>
<g opacity="0.67">
<mask id="mask3_1_3" style="mask-type:luminance" maskUnits="userSpaceOnUse" x="42" y="2" width="36" height="36">
<g opacity="0.67">
<path d="M77.5 2.42188H42.4219V37.5H77.5V2.42188Z" fill="white"/>
<path d="M71.5625 19.9609C71.5625 13.5536 66.3683 8.35938 59.9609 8.35938C53.5536 8.35938 48.3594 13.5536 48.3594 19.9609C48.3594 26.3683 53.5536 31.5625 59.9609 31.5625C66.3683 31.5625 71.5625 26.3683 71.5625 19.9609Z" fill="black"/>
</g>
</mask>
<g mask="url(#mask3_1_3)">
<g filter="url(#filter8_f_1_3)">
<g style="mix-blend-mode:hard-light">
<path d="M48.3594 20.1172C48.3594 13.7098 53.5536 8.51562 59.9609 8.51562C66.3683 8.51562 71.5625 13.7098 71.5625 20.1172C71.5625 26.5245 66.3683 31.7188 59.9609 31.7188C53.5536 31.7188 48.3594 26.5245 48.3594 20.1172Z" fill="black" fill-opacity="0.04"/>
</g>
</g>
</g>
</g>
<g opacity="0.67">
<mask id="mask4_1_3" style="mask-type:luminance" maskUnits="userSpaceOnUse" x="2" y="2" width="36" height="36">
<g opacity="0.67">
<path d="M37.5 2.42188H2.42188V37.5H37.5V2.42188Z" fill="white"/>
<path d="M31.5625 19.9609C31.5625 13.5536 26.3683 8.35938 19.9609 8.35938C13.5536 8.35938 8.35938 13.5536 8.35938 19.9609C8.35938 26.3683 13.5536 31.5625 19.9609 31.5625C26.3683 31.5625 31.5625 26.3683 31.5625 19.9609Z" fill="black"/>
</g>
</mask>
<g mask="url(#mask4_1_3)">
<g filter="url(#filter9_f_1_3)">
<g style="mix-blend-mode:hard-light">
<path d="M8.35938 20.1172C8.35938 13.7098 13.5536 8.51562 19.9609 8.51562C26.3683 8.51562 31.5625 13.7098 31.5625 20.1172C31.5625 26.5245 26.3683 31.7188 19.9609 31.7188C13.5536 31.7188 8.35938 26.5245 8.35938 20.1172Z" fill="black" fill-opacity="0.04"/>
</g>
</g>
</g>
</g>
<g style="mix-blend-mode:color-dodge">
<path d="M8.35938 19.9609C8.35938 13.5536 13.5536 8.35938 19.9609 8.35938C26.3683 8.35938 31.5625 13.5536 31.5625 19.9609C31.5625 26.3683 26.3683 31.5625 19.9609 31.5625C13.5536 31.5625 8.35938 26.3683 8.35938 19.9609Z" fill="#333333"/>
</g>
<path d="M8.35938 19.9609C8.35938 13.5536 13.5536 8.35938 19.9609 8.35938C26.3683 8.35938 31.5625 13.5536 31.5625 19.9609C31.5625 26.3683 26.3683 31.5625 19.9609 31.5625C13.5536 31.5625 8.35938 26.3683 8.35938 19.9609Z" fill="#A3A3A3" fill-opacity="0.5"/>
<path d="M8.35938 19.9609C8.35938 13.5536 13.5536 8.35938 19.9609 8.35938C26.3683 8.35938 31.5625 13.5536 31.5625 19.9609C31.5625 26.3683 26.3683 31.5625 19.9609 31.5625C13.5536 31.5625 8.35938 26.3683 8.35938 19.9609Z" fill="url(#paint4_linear_1_3)"/>
<path d="M31.5625 19.9609C31.5625 13.5536 26.3683 8.35938 19.9609 8.35938C13.5536 8.35938 8.35938 13.5536 8.35938 19.9609C8.35938 26.3683 13.5536 31.5625 19.9609 31.5625C26.3683 31.5625 31.5625 26.3683 31.5625 19.9609Z" fill="black" fill-opacity="0.01"/>
<path d="M19.9609 8.35938V19.9609L9.91367 25.7617L19.9609 8.35938Z" fill="#E4E4E4" fill-opacity="0.5"/>
<path d="M9.92188 25.7324L19.9691 19.9316L30.0164 25.7324H9.92188Z" fill="#8C8C8C" fill-opacity="0.5"/>
<path d="M29.9927 25.7617L19.9455 19.9609V8.35938L29.9927 25.7617Z" fill="#BCBCBC" fill-opacity="0.5"/>
</g>
<path d="M1353 438C1353 435.239 1355.24 433 1358 433H1401.02C1403.78 433 1406.02 435.239 1406.02 438V481.023C1406.02 483.785 1403.78 486.023 1401.02 486.023H1358C1355.24 486.023 1353 483.785 1353 481.023V438Z" fill="#D9D9D9"/>
<path d="M1379.51 436.291C1384.74 436.291 1388.8 436.466 1391.96 437.046C1395.11 437.625 1397.31 438.598 1398.87 440.156C1400.43 441.714 1401.4 443.914 1401.98 447.066C1402.56 450.223 1402.73 454.282 1402.73 459.511C1402.73 464.741 1402.56 468.801 1401.98 471.958C1401.4 475.11 1400.43 477.31 1398.87 478.868C1397.31 480.426 1395.11 481.398 1391.96 481.977C1388.8 482.557 1384.74 482.732 1379.51 482.732C1374.28 482.732 1370.22 482.557 1367.07 481.977C1363.91 481.398 1361.71 480.425 1360.16 478.868C1358.6 477.31 1357.62 475.11 1357.05 471.958C1356.47 468.801 1356.29 464.741 1356.29 459.511C1356.29 454.282 1356.47 450.223 1357.05 447.066C1357.62 443.914 1358.6 441.714 1360.16 440.156C1361.71 438.598 1363.91 437.625 1367.07 437.046C1370.22 436.466 1374.28 436.291 1379.51 436.291Z" stroke="#C9C9C9"/>
<line x1="1378.62" y1="433" x2="1378.62" y2="486.023" stroke="#C9C9C9"/>
<line x1="1353" y1="460.407" x2="1406.02" y2="460.407" stroke="#C9C9C9"/>
<path d="M1353 318C1353 315.239 1355.24 313 1358 313H1401.02C1403.78 313 1406.02 315.239 1406.02 318V361.023C1406.02 363.785 1403.78 366.023 1401.02 366.023H1358C1355.24 366.023 1353 363.785 1353 361.023V318Z" fill="#D9D9D9"/>
<path d="M1379.51 316.291C1384.74 316.291 1388.8 316.466 1391.96 317.046C1395.11 317.625 1397.31 318.598 1398.87 320.156C1400.43 321.714 1401.4 323.914 1401.98 327.066C1402.56 330.223 1402.73 334.282 1402.73 339.511C1402.73 344.741 1402.56 348.801 1401.98 351.958C1401.4 355.11 1400.43 357.31 1398.87 358.868C1397.31 360.426 1395.11 361.398 1391.96 361.977C1388.8 362.557 1384.74 362.732 1379.51 362.732C1374.28 362.732 1370.22 362.557 1367.07 361.977C1363.91 361.398 1361.71 360.425 1360.16 358.868C1358.6 357.31 1357.62 355.11 1357.05 351.958C1356.47 348.801 1356.29 344.741 1356.29 339.511C1356.29 334.282 1356.47 330.223 1357.05 327.066C1357.62 323.914 1358.6 321.714 1360.16 320.156C1361.71 318.598 1363.91 317.625 1367.07 317.046C1370.22 316.466 1374.28 316.291 1379.51 316.291Z" stroke="#C9C9C9"/>
<line x1="1378.62" y1="313" x2="1378.62" y2="366.023" stroke="#C9C9C9"/>
<line x1="1353" y1="340.407" x2="1406.02" y2="340.407" stroke="#C9C9C9"/>
<path d="M1353 198C1353 195.239 1355.24 193 1358 193H1401.02C1403.78 193 1406.02 195.239 1406.02 198V241.023C1406.02 243.785 1403.78 246.023 1401.02 246.023H1358C1355.24 246.023 1353 243.785 1353 241.023V198Z" fill="#D9D9D9"/>
<path d="M1379.51 196.291C1384.74 196.291 1388.8 196.466 1391.96 197.046C1395.11 197.625 1397.31 198.598 1398.87 200.156C1400.43 201.714 1401.4 203.914 1401.98 207.066C1402.56 210.223 1402.73 214.282 1402.73 219.511C1402.73 224.741 1402.56 228.801 1401.98 231.958C1401.4 235.11 1400.43 237.31 1398.87 238.868C1397.31 240.426 1395.11 241.398 1391.96 241.977C1388.8 242.557 1384.74 242.732 1379.51 242.732C1374.28 242.732 1370.22 242.557 1367.07 241.977C1363.91 241.398 1361.71 240.425 1360.16 238.868C1358.6 237.31 1357.62 235.11 1357.05 231.958C1356.47 228.801 1356.29 224.741 1356.29 219.511C1356.29 214.282 1356.47 210.223 1357.05 207.066C1357.62 203.914 1358.6 201.714 1360.16 200.156C1361.71 198.598 1363.91 197.625 1367.07 197.046C1370.22 196.466 1374.28 196.291 1379.51 196.291Z" stroke="#C9C9C9"/>
<line x1="1378.62" y1="193" x2="1378.62" y2="246.023" stroke="#C9C9C9"/>
<line x1="1353" y1="220.407" x2="1406.02" y2="220.407" stroke="#C9C9C9"/>
<path d="M1353 78C1353 75.2386 1355.24 73 1358 73H1401.02C1403.78 73 1406.02 75.2386 1406.02 78V121.023C1406.02 123.785 1403.78 126.023 1401.02 126.023H1358C1355.24 126.023 1353 123.785 1353 121.023V78Z" fill="#D9D9D9"/>
<path d="M1379.51 76.2907C1384.74 76.2907 1388.8 76.4658 1391.96 77.0456C1395.11 77.6245 1397.31 78.5982 1398.87 80.1559C1400.43 81.7136 1401.4 83.9142 1401.98 87.0661C1402.56 90.2227 1402.73 94.282 1402.73 99.5114C1402.73 104.741 1402.56 108.801 1401.98 111.958C1401.4 115.11 1400.43 117.31 1398.87 118.868C1397.31 120.426 1395.11 121.398 1391.96 121.977C1388.8 122.557 1384.74 122.732 1379.51 122.732C1374.28 122.732 1370.22 122.557 1367.07 121.977C1363.91 121.398 1361.71 120.425 1360.16 118.868C1358.6 117.31 1357.62 115.11 1357.05 111.958C1356.47 108.801 1356.29 104.741 1356.29 99.5114C1356.29 94.282 1356.47 90.2227 1357.05 87.0661C1357.62 83.914 1358.6 81.7136 1360.16 80.1559C1361.71 78.5982 1363.91 77.6245 1367.07 77.0456C1370.22 76.4658 1374.28 76.2907 1379.51 76.2907Z" stroke="#C9C9C9"/>
<line x1="1378.62" y1="73" x2="1378.62" y2="126.023" stroke="#C9C9C9"/>
<line x1="1353" y1="100.407" x2="1406.02" y2="100.407" stroke="#C9C9C9"/>
<rect opacity="0.75" x="485" y="914" width="470" height="100" rx="15" fill="white"/>
<circle cx="521" cy="950" r="5" fill="#6F6F6F"/>
<circle cx="549" cy="950" r="5" fill="#6F6F6F"/>
<circle cx="549" cy="978" r="5" fill="#6F6F6F"/>
<circle cx="521" cy="978" r="5" fill="#6F6F6F"/>
<circle cx="535" cy="978" r="5" fill="#6F6F6F"/>
<circle cx="535" cy="950" r="5" fill="#6F6F6F"/>
<circle cx="521" cy="964" r="5" fill="#6F6F6F"/>
<circle cx="549" cy="964" r="5" fill="#6F6F6F"/>
<circle cx="535" cy="964" r="5" fill="#6F6F6F"/>
</g>
<defs>
<filter id="filter0_d_1_3" x="-201" y="28" width="1841" height="1841" filterUnits="userSpaceOnUse" color-interpolation-filters="sRGB">
<feFlood flood-opacity="0" result="BackgroundImageFix"/>
<feColorMatrix in="SourceAlpha" type="matrix" values="0 0 0 0 0 0 0 0 0 0 0 0 0 0 0 0 0 0 127 0" result="hardAlpha"/>
<feOffset dy="4"/>
<feGaussianBlur stdDeviation="125"/>
<feComposite in2="hardAlpha" operator="out"/>
<feColorMatrix type="matrix" values="0 0 0 0 0 0 0 0 0 0 0 0 0 0 0 0 0 0 0.25 0"/>
<feBlend mode="normal" in2="BackgroundImageFix" result="effect1_dropShadow_1_3"/>
<feBlend mode="normal" in="SourceGraphic" in2="effect1_dropShadow_1_3" result="shape"/>
</filter>
<filter id="filter1_d_1_3" x="750" y="-285" width="1657" height="1657" filterUnits="userSpaceOnUse" color-interpolation-filters="sRGB">
<feFlood flood-opacity="0" result="BackgroundImageFix"/>
<feColorMatrix in="SourceAlpha" type="matrix" values="0 0 0 0 0 0 0 0 0 0 0 0 0 0 0 0 0 0 127 0" result="hardAlpha"/>
<feOffset dy="4"/>
<feGaussianBlur stdDeviation="125"/>
<feComposite in2="hardAlpha" operator="out"/>
<feColorMatrix type="matrix" values="0 0 0 0 0 0 0 0 0 0 0 0 0 0 0 0 0 0 0.25 0"/>
<feBlend mode="normal" in2="BackgroundImageFix" result="effect1_dropShadow_1_3"/>
<feBlend mode="normal" in="SourceGraphic" in2="effect1_dropShadow_1_3" result="shape"/>
</filter>
<filter id="filter2_d_1_3" x="-629" y="-1147" width="2140" height="2140" filterUnits="userSpaceOnUse" color-interpolation-filters="sRGB">
<feFlood flood-opacity="0" result="BackgroundImageFix"/>
<feColorMatrix in="SourceAlpha" type="matrix" values="0 0 0 0 0 0 0 0 0 0 0 0 0 0 0 0 0 0 127 0" result="hardAlpha"/>
<feOffset dy="4"/>
<feGaussianBlur stdDeviation="125"/>
<feComposite in2="hardAlpha" operator="out"/>
<feColorMatrix type="matrix" values="0 0 0 0 0 0 0 0 0 0 0 0 0 0 0 0 0 0 0.25 0"/>
<feBlend mode="normal" in2="BackgroundImageFix" result="effect1_dropShadow_1_3"/>
<feBlend mode="normal" in="SourceGraphic" in2="effect1_dropShadow_1_3" result="shape"/>
</filter>
<filter id="filter3_d_1_3" x="-1334" y="-285" width="2140" height="2140" filterUnits="userSpaceOnUse" color-interpolation-filters="sRGB">
<feFlood flood-opacity="0" result="BackgroundImageFix"/>
<feColorMatrix in="SourceAlpha" type="matrix" values="0 0 0 0 0 0 0 0 0 0 0 0 0 0 0 0 0 0 127 0" result="hardAlpha"/>
<feOffset dy="4"/>
<feGaussianBlur stdDeviation="125"/>
<feComposite in2="hardAlpha" operator="out"/>
<feColorMatrix type="matrix" values="0 0 0 0 0 0 0 0 0 0 0 0 0 0 0 0 0 0 0.25 0"/>
<feBlend mode="normal" in2="BackgroundImageFix" result="effect1_dropShadow_1_3"/>
<feBlend mode="normal" in="SourceGraphic" in2="effect1_dropShadow_1_3" result="shape"/>
</filter>
<filter id="filter5_f_1_3" x="1388.36" y="-11.4844" width="63.2031" height="63.2031" filterUnits="userSpaceOnUse" color-interpolation-filters="sRGB">
<feFlood flood-opacity="0" result="BackgroundImageFix"/>
<feBlend mode="normal" in="SourceGraphic" in2="BackgroundImageFix" result="shape"/>
<feGaussianBlur stdDeviation="10" result="effect1_foregroundBlur_1_3"/>
</filter>
<filter id="filter6_f_1_3" x="228.359" y="-11.4844" width="63.2031" height="63.2031" filterUnits="userSpaceOnUse" color-interpolation-filters="sRGB">
<feFlood flood-opacity="0" result="BackgroundImageFix"/>
<feBlend mode="normal" in="SourceGraphic" in2="BackgroundImageFix" result="shape"/>
<feGaussianBlur stdDeviation="10" result="effect1_foregroundBlur_1_3"/>
</filter>
<filter id="filter7_f_1_3" x="188.359" y="-11.4844" width="63.2031" height="63.2031" filterUnits="userSpaceOnUse" color-interpolation-filters="sRGB">
<feFlood flood-opacity="0" result="BackgroundImageFix"/>
<feBlend mode="normal" in="SourceGraphic" in2="BackgroundImageFix" result="shape"/>
<feGaussianBlur stdDeviation="10" result="effect1_foregroundBlur_1_3"/>
</filter>
<filter id="filter8_f_1_3" x="28.3594" y="-11.4844" width="63.2031" height="63.2031" filterUnits="userSpaceOnUse" color-interpolation-filters="sRGB">
<feFlood flood-opacity="0" result="BackgroundImageFix"/>
<feBlend mode="normal" in="SourceGraphic" in2="BackgroundImageFix" result="shape"/>
<feGaussianBlur stdDeviation="10" result="effect1_foregroundBlur_1_3"/>
</filter>
<filter id="filter9_f_1_3" x="-11.6406" y="-11.4844" width="63.2031" height="63.2031" filterUnits="userSpaceOnUse" color-interpolation-filters="sRGB">
<feFlood flood-opacity="0" result="BackgroundImageFix"/>
<feBlend mode="normal" in="SourceGraphic" in2="BackgroundImageFix" result="shape"/>
<feGaussianBlur stdDeviation="10" result="effect1_foregroundBlur_1_3"/>
</filter>
<linearGradient id="paint0_linear_1_3" x1="719.5" y1="274" x2="719.5" y2="1615" gradientUnits="userSpaceOnUse">
<stop stop-color="#D9D9D9"/>
<stop offset="1"/>
</linearGradient>
<linearGradient id="paint1_linear_1_3" x1="1578.5" y1="-39" x2="1578.5" y2="1118" gradientUnits="userSpaceOnUse">
<stop stop-color="#D9D9D9"/>
<stop offset="1" stop-color="#7D7D7D"/>
</linearGradient>
<linearGradient id="paint2_linear_1_3" x1="441" y1="-901" x2="441" y2="739" gradientUnits="userSpaceOnUse">
<stop stop-color="#D9D9D9"/>
<stop offset="1" stop-color="#656565"/>
</linearGradient>
<linearGradient id="paint3_linear_1_3" x1="-264" y1="-39" x2="-264" y2="1601" gradientUnits="userSpaceOnUse">
<stop stop-color="#D9D9D9"/>
<stop offset="1" stop-color="#656565"/>
</linearGradient>
<linearGradient id="paint4_linear_1_3" x1="19.9609" y1="8.35938" x2="19.9609" y2="31.5625" gradientUnits="userSpaceOnUse">
<stop stop-color="#FAFAFA"/>
<stop offset="0.5" stop-color="#F7F7F7"/>
<stop offset="1" stop-color="#F9F9F9"/>
</linearGradient>
<clipPath id="clip0_1_3">
<rect width="1440" height="1024" fill="white"/>
</clipPath>
<clipPath id="clip1_1_3">
<rect width="1440" height="984" fill="white" transform="translate(0 40)"/>
</clipPath>
<clipPath id="clip2_1_3">
<rect width="1440" height="40" fill="white"/>
</clipPath>
</defs>
</svg>
